<mxfile host="app.diagrams.net" modified="2023-07-11T17:25:34.133Z" agent="Mozilla/5.0 (Windows NT 10.0; Win64; x64) AppleWebKit/537.36 (KHTML, like Gecko) Chrome/114.0.0.0 Safari/537.36" etag="lpXUqqdnSeg4qI_D9amS" version="21.6.1" type="device">
  <diagram name="Page-1" id="lHf_75gHKDj6dC6Q723x">
    <mxGraphModel dx="2259" dy="1029" grid="0" gridSize="10" guides="0" tooltips="0" connect="1" arrows="1" fold="1" page="0" pageScale="1" pageWidth="850" pageHeight="1100" background="none" math="0" shadow="0">
      <root>
        <mxCell id="0" />
        <mxCell id="1" parent="0" />
        <mxCell id="EeQgCP8wtizlQMF-p1mX-7" style="edgeStyle=orthogonalEdgeStyle;rounded=0;orthogonalLoop=1;jettySize=auto;html=1;exitX=0.5;exitY=1;exitDx=0;exitDy=0;" edge="1" parent="1" source="EeQgCP8wtizlQMF-p1mX-20" target="EeQgCP8wtizlQMF-p1mX-6">
          <mxGeometry relative="1" as="geometry">
            <mxPoint x="221" y="306" as="sourcePoint" />
          </mxGeometry>
        </mxCell>
        <mxCell id="EeQgCP8wtizlQMF-p1mX-16" style="edgeStyle=orthogonalEdgeStyle;rounded=0;orthogonalLoop=1;jettySize=auto;html=1;exitX=0.5;exitY=0;exitDx=0;exitDy=0;" edge="1" parent="1" source="EeQgCP8wtizlQMF-p1mX-114" target="EeQgCP8wtizlQMF-p1mX-6">
          <mxGeometry relative="1" as="geometry">
            <mxPoint x="222.75" y="471" as="sourcePoint" />
          </mxGeometry>
        </mxCell>
        <mxCell id="EeQgCP8wtizlQMF-p1mX-6" value="&lt;font style=&quot;font-size: 14px;&quot;&gt;Mobile&lt;/font&gt;" style="text;html=1;align=center;verticalAlign=middle;resizable=0;points=[];autosize=1;strokeColor=none;fillColor=none;" vertex="1" parent="1">
          <mxGeometry x="193" y="377" width="59" height="29" as="geometry" />
        </mxCell>
        <mxCell id="EeQgCP8wtizlQMF-p1mX-9" style="edgeStyle=orthogonalEdgeStyle;rounded=0;orthogonalLoop=1;jettySize=auto;html=1;exitX=0.5;exitY=1;exitDx=0;exitDy=0;" edge="1" parent="1" source="EeQgCP8wtizlQMF-p1mX-21" target="EeQgCP8wtizlQMF-p1mX-8">
          <mxGeometry relative="1" as="geometry">
            <mxPoint x="378" y="306" as="sourcePoint" />
          </mxGeometry>
        </mxCell>
        <mxCell id="EeQgCP8wtizlQMF-p1mX-18" style="edgeStyle=orthogonalEdgeStyle;rounded=0;orthogonalLoop=1;jettySize=auto;html=1;exitX=0.508;exitY=0;exitDx=0;exitDy=0;exitPerimeter=0;" edge="1" parent="1" source="EeQgCP8wtizlQMF-p1mX-116" target="EeQgCP8wtizlQMF-p1mX-8">
          <mxGeometry relative="1" as="geometry">
            <mxPoint x="374.38000000000034" y="471" as="sourcePoint" />
            <Array as="points">
              <mxPoint x="376" y="471" />
            </Array>
          </mxGeometry>
        </mxCell>
        <mxCell id="EeQgCP8wtizlQMF-p1mX-8" value="&lt;font style=&quot;font-size: 14px;&quot;&gt;Edge&lt;/font&gt;" style="text;html=1;align=center;verticalAlign=middle;resizable=0;points=[];autosize=1;strokeColor=none;fillColor=none;" vertex="1" parent="1">
          <mxGeometry x="349.75" y="377" width="51" height="29" as="geometry" />
        </mxCell>
        <mxCell id="EeQgCP8wtizlQMF-p1mX-11" style="edgeStyle=orthogonalEdgeStyle;rounded=0;orthogonalLoop=1;jettySize=auto;html=1;exitX=0.5;exitY=1;exitDx=0;exitDy=0;" edge="1" parent="1" source="EeQgCP8wtizlQMF-p1mX-22" target="EeQgCP8wtizlQMF-p1mX-10">
          <mxGeometry relative="1" as="geometry">
            <mxPoint x="535" y="306" as="sourcePoint" />
          </mxGeometry>
        </mxCell>
        <mxCell id="EeQgCP8wtizlQMF-p1mX-19" style="edgeStyle=orthogonalEdgeStyle;rounded=0;orthogonalLoop=1;jettySize=auto;html=1;exitX=0.5;exitY=0;exitDx=0;exitDy=0;" edge="1" parent="1" source="EeQgCP8wtizlQMF-p1mX-117" target="EeQgCP8wtizlQMF-p1mX-10">
          <mxGeometry relative="1" as="geometry">
            <mxPoint x="533.75" y="471" as="sourcePoint" />
          </mxGeometry>
        </mxCell>
        <mxCell id="EeQgCP8wtizlQMF-p1mX-10" value="&lt;font style=&quot;font-size: 14px;&quot;&gt;Cloud&lt;/font&gt;" style="text;html=1;align=center;verticalAlign=middle;resizable=0;points=[];autosize=1;strokeColor=none;fillColor=none;" vertex="1" parent="1">
          <mxGeometry x="506.25" y="377" width="55" height="29" as="geometry" />
        </mxCell>
        <mxCell id="EeQgCP8wtizlQMF-p1mX-77" style="edgeStyle=orthogonalEdgeStyle;rounded=0;orthogonalLoop=1;jettySize=auto;html=1;entryX=0.5;entryY=1;entryDx=0;entryDy=0;" edge="1" parent="1" source="EeQgCP8wtizlQMF-p1mX-20" target="EeQgCP8wtizlQMF-p1mX-75">
          <mxGeometry relative="1" as="geometry" />
        </mxCell>
        <mxCell id="EeQgCP8wtizlQMF-p1mX-78" style="edgeStyle=orthogonalEdgeStyle;rounded=0;orthogonalLoop=1;jettySize=auto;html=1;entryX=0.5;entryY=1;entryDx=0;entryDy=0;" edge="1" parent="1" source="EeQgCP8wtizlQMF-p1mX-20" target="EeQgCP8wtizlQMF-p1mX-76">
          <mxGeometry relative="1" as="geometry" />
        </mxCell>
        <mxCell id="EeQgCP8wtizlQMF-p1mX-245" style="edgeStyle=orthogonalEdgeStyle;rounded=0;orthogonalLoop=1;jettySize=auto;html=1;fontFamily=Helvetica;fontSize=12;fontColor=default;" edge="1" parent="1" source="EeQgCP8wtizlQMF-p1mX-20">
          <mxGeometry relative="1" as="geometry">
            <mxPoint x="121.88890075683594" y="82.0625228881836" as="targetPoint" />
          </mxGeometry>
        </mxCell>
        <mxCell id="EeQgCP8wtizlQMF-p1mX-20" value="&lt;font style=&quot;font-size: 14px;&quot;&gt;Baseline&lt;/font&gt;" style="rounded=0;whiteSpace=wrap;html=1;" vertex="1" parent="1">
          <mxGeometry x="164" y="246" width="117" height="60" as="geometry" />
        </mxCell>
        <mxCell id="EeQgCP8wtizlQMF-p1mX-79" value="" style="edgeStyle=orthogonalEdgeStyle;rounded=0;orthogonalLoop=1;jettySize=auto;html=1;" edge="1" parent="1" source="EeQgCP8wtizlQMF-p1mX-21" target="EeQgCP8wtizlQMF-p1mX-74">
          <mxGeometry relative="1" as="geometry" />
        </mxCell>
        <mxCell id="EeQgCP8wtizlQMF-p1mX-80" style="edgeStyle=orthogonalEdgeStyle;rounded=0;orthogonalLoop=1;jettySize=auto;html=1;entryX=0.5;entryY=1;entryDx=0;entryDy=0;" edge="1" parent="1" source="EeQgCP8wtizlQMF-p1mX-21" target="EeQgCP8wtizlQMF-p1mX-73">
          <mxGeometry relative="1" as="geometry" />
        </mxCell>
        <mxCell id="EeQgCP8wtizlQMF-p1mX-249" style="edgeStyle=orthogonalEdgeStyle;rounded=0;orthogonalLoop=1;jettySize=auto;html=1;fontFamily=Helvetica;fontSize=12;fontColor=default;" edge="1" parent="1" source="EeQgCP8wtizlQMF-p1mX-21">
          <mxGeometry relative="1" as="geometry">
            <mxPoint x="455.2222595214844" y="84.84028625488281" as="targetPoint" />
          </mxGeometry>
        </mxCell>
        <mxCell id="EeQgCP8wtizlQMF-p1mX-21" value="&lt;font style=&quot;font-size: 14px;&quot;&gt;Baseline&lt;/font&gt;" style="rounded=0;whiteSpace=wrap;html=1;" vertex="1" parent="1">
          <mxGeometry x="318.5" y="246" width="113.5" height="60" as="geometry" />
        </mxCell>
        <mxCell id="EeQgCP8wtizlQMF-p1mX-71" style="edgeStyle=orthogonalEdgeStyle;rounded=0;orthogonalLoop=1;jettySize=auto;html=1;exitX=0.5;exitY=0;exitDx=0;exitDy=0;entryX=0.5;entryY=1;entryDx=0;entryDy=0;" edge="1" parent="1" source="EeQgCP8wtizlQMF-p1mX-22" target="EeQgCP8wtizlQMF-p1mX-69">
          <mxGeometry relative="1" as="geometry" />
        </mxCell>
        <mxCell id="EeQgCP8wtizlQMF-p1mX-72" style="edgeStyle=orthogonalEdgeStyle;rounded=0;orthogonalLoop=1;jettySize=auto;html=1;entryX=0.5;entryY=1;entryDx=0;entryDy=0;" edge="1" parent="1" source="EeQgCP8wtizlQMF-p1mX-22" target="EeQgCP8wtizlQMF-p1mX-70">
          <mxGeometry relative="1" as="geometry" />
        </mxCell>
        <mxCell id="EeQgCP8wtizlQMF-p1mX-240" style="edgeStyle=orthogonalEdgeStyle;rounded=0;orthogonalLoop=1;jettySize=auto;html=1;fontFamily=Helvetica;fontSize=12;fontColor=default;entryX=0.514;entryY=1.06;entryDx=0;entryDy=0;entryPerimeter=0;" edge="1" parent="1">
          <mxGeometry relative="1" as="geometry">
            <mxPoint x="640.326" y="87.00000000000001" as="targetPoint" />
            <mxPoint x="578" y="274.26" as="sourcePoint" />
          </mxGeometry>
        </mxCell>
        <mxCell id="EeQgCP8wtizlQMF-p1mX-22" value="&lt;font style=&quot;font-size: 14px;&quot;&gt;Baseline&lt;/font&gt;" style="rounded=0;whiteSpace=wrap;html=1;" vertex="1" parent="1">
          <mxGeometry x="475.5" y="246" width="116.5" height="60" as="geometry" />
        </mxCell>
        <mxCell id="EeQgCP8wtizlQMF-p1mX-23" value="&lt;font style=&quot;font-size: 14px;&quot;&gt;EarlyExit&lt;/font&gt;" style="rounded=0;whiteSpace=wrap;html=1;" vertex="1" parent="1">
          <mxGeometry x="166" y="698" width="75" height="60" as="geometry" />
        </mxCell>
        <mxCell id="EeQgCP8wtizlQMF-p1mX-24" value="" style="endArrow=none;dashed=1;html=1;rounded=0;exitX=1;exitY=0;exitDx=0;exitDy=0;" edge="1" parent="1" source="EeQgCP8wtizlQMF-p1mX-23">
          <mxGeometry width="50" height="50" relative="1" as="geometry">
            <mxPoint x="247" y="684" as="sourcePoint" />
            <mxPoint x="269" y="698" as="targetPoint" />
          </mxGeometry>
        </mxCell>
        <mxCell id="EeQgCP8wtizlQMF-p1mX-25" value="" style="endArrow=none;dashed=1;html=1;rounded=0;exitX=1;exitY=1;exitDx=0;exitDy=0;" edge="1" parent="1" source="EeQgCP8wtizlQMF-p1mX-23">
          <mxGeometry width="50" height="50" relative="1" as="geometry">
            <mxPoint x="403" y="531" as="sourcePoint" />
            <mxPoint x="272" y="758" as="targetPoint" />
          </mxGeometry>
        </mxCell>
        <mxCell id="EeQgCP8wtizlQMF-p1mX-26" value="" style="endArrow=none;dashed=1;html=1;rounded=0;" edge="1" parent="1">
          <mxGeometry width="50" height="50" relative="1" as="geometry">
            <mxPoint x="272" y="698" as="sourcePoint" />
            <mxPoint x="272" y="756" as="targetPoint" />
          </mxGeometry>
        </mxCell>
        <mxCell id="EeQgCP8wtizlQMF-p1mX-27" style="edgeStyle=orthogonalEdgeStyle;rounded=0;orthogonalLoop=1;jettySize=auto;html=1;exitX=0.5;exitY=1;exitDx=0;exitDy=0;" edge="1" parent="1">
          <mxGeometry relative="1" as="geometry">
            <mxPoint x="222.5" y="543" as="sourcePoint" />
            <mxPoint x="222.5" y="543" as="targetPoint" />
          </mxGeometry>
        </mxCell>
        <mxCell id="EeQgCP8wtizlQMF-p1mX-28" value="&lt;font style=&quot;font-size: 14px;&quot;&gt;EarlyExit&lt;/font&gt;" style="rounded=0;whiteSpace=wrap;html=1;" vertex="1" parent="1">
          <mxGeometry x="320.1" y="698" width="75" height="60" as="geometry" />
        </mxCell>
        <mxCell id="EeQgCP8wtizlQMF-p1mX-29" value="" style="endArrow=none;dashed=1;html=1;rounded=0;exitX=1;exitY=0;exitDx=0;exitDy=0;" edge="1" parent="1" source="EeQgCP8wtizlQMF-p1mX-28">
          <mxGeometry width="50" height="50" relative="1" as="geometry">
            <mxPoint x="401.1" y="684" as="sourcePoint" />
            <mxPoint x="423.1" y="698" as="targetPoint" />
          </mxGeometry>
        </mxCell>
        <mxCell id="EeQgCP8wtizlQMF-p1mX-30" value="" style="endArrow=none;dashed=1;html=1;rounded=0;exitX=1;exitY=1;exitDx=0;exitDy=0;" edge="1" parent="1" source="EeQgCP8wtizlQMF-p1mX-28">
          <mxGeometry width="50" height="50" relative="1" as="geometry">
            <mxPoint x="557.1" y="531" as="sourcePoint" />
            <mxPoint x="426.1" y="758" as="targetPoint" />
          </mxGeometry>
        </mxCell>
        <mxCell id="EeQgCP8wtizlQMF-p1mX-31" value="" style="endArrow=none;dashed=1;html=1;rounded=0;" edge="1" parent="1">
          <mxGeometry width="50" height="50" relative="1" as="geometry">
            <mxPoint x="426.1" y="698" as="sourcePoint" />
            <mxPoint x="426.1" y="756" as="targetPoint" />
          </mxGeometry>
        </mxCell>
        <mxCell id="EeQgCP8wtizlQMF-p1mX-32" value="&lt;font style=&quot;font-size: 14px;&quot;&gt;EarlyExit&lt;/font&gt;" style="rounded=0;whiteSpace=wrap;html=1;" vertex="1" parent="1">
          <mxGeometry x="477" y="697.2" width="75" height="60" as="geometry" />
        </mxCell>
        <mxCell id="EeQgCP8wtizlQMF-p1mX-33" value="" style="endArrow=none;dashed=1;html=1;rounded=0;exitX=1;exitY=0;exitDx=0;exitDy=0;" edge="1" parent="1" source="EeQgCP8wtizlQMF-p1mX-32">
          <mxGeometry width="50" height="50" relative="1" as="geometry">
            <mxPoint x="558" y="683.2" as="sourcePoint" />
            <mxPoint x="580" y="697.2" as="targetPoint" />
          </mxGeometry>
        </mxCell>
        <mxCell id="EeQgCP8wtizlQMF-p1mX-34" value="" style="endArrow=none;dashed=1;html=1;rounded=0;exitX=1;exitY=1;exitDx=0;exitDy=0;" edge="1" parent="1" source="EeQgCP8wtizlQMF-p1mX-32">
          <mxGeometry width="50" height="50" relative="1" as="geometry">
            <mxPoint x="714" y="530.2" as="sourcePoint" />
            <mxPoint x="583" y="757.2" as="targetPoint" />
          </mxGeometry>
        </mxCell>
        <mxCell id="EeQgCP8wtizlQMF-p1mX-35" value="" style="endArrow=none;dashed=1;html=1;rounded=0;" edge="1" parent="1">
          <mxGeometry width="50" height="50" relative="1" as="geometry">
            <mxPoint x="583" y="697.2" as="sourcePoint" />
            <mxPoint x="583" y="755.2" as="targetPoint" />
          </mxGeometry>
        </mxCell>
        <mxCell id="EeQgCP8wtizlQMF-p1mX-56" style="edgeStyle=orthogonalEdgeStyle;rounded=0;orthogonalLoop=1;jettySize=auto;html=1;exitX=0.5;exitY=1;exitDx=0;exitDy=0;" edge="1" parent="1" source="EeQgCP8wtizlQMF-p1mX-114" target="EeQgCP8wtizlQMF-p1mX-47">
          <mxGeometry relative="1" as="geometry">
            <mxPoint x="222.75" y="531" as="sourcePoint" />
          </mxGeometry>
        </mxCell>
        <mxCell id="EeQgCP8wtizlQMF-p1mX-61" style="edgeStyle=orthogonalEdgeStyle;rounded=0;orthogonalLoop=1;jettySize=auto;html=1;exitX=0.75;exitY=0;exitDx=0;exitDy=0;" edge="1" parent="1" source="EeQgCP8wtizlQMF-p1mX-23" target="EeQgCP8wtizlQMF-p1mX-47">
          <mxGeometry relative="1" as="geometry" />
        </mxCell>
        <mxCell id="EeQgCP8wtizlQMF-p1mX-47" value="&lt;font style=&quot;font-size: 14px;&quot;&gt;Mobile&lt;/font&gt;" style="text;html=1;align=center;verticalAlign=middle;resizable=0;points=[];autosize=1;strokeColor=none;fillColor=none;" vertex="1" parent="1">
          <mxGeometry x="193" y="605" width="59" height="29" as="geometry" />
        </mxCell>
        <mxCell id="EeQgCP8wtizlQMF-p1mX-64" style="edgeStyle=orthogonalEdgeStyle;rounded=0;orthogonalLoop=1;jettySize=auto;html=1;exitX=0.75;exitY=0;exitDx=0;exitDy=0;" edge="1" parent="1" source="EeQgCP8wtizlQMF-p1mX-28" target="EeQgCP8wtizlQMF-p1mX-50">
          <mxGeometry relative="1" as="geometry" />
        </mxCell>
        <mxCell id="EeQgCP8wtizlQMF-p1mX-50" value="&lt;font style=&quot;font-size: 14px;&quot;&gt;Edge&lt;/font&gt;" style="text;html=1;align=center;verticalAlign=middle;resizable=0;points=[];autosize=1;strokeColor=none;fillColor=none;" vertex="1" parent="1">
          <mxGeometry x="350.25" y="605" width="51" height="29" as="geometry" />
        </mxCell>
        <mxCell id="EeQgCP8wtizlQMF-p1mX-58" style="edgeStyle=orthogonalEdgeStyle;rounded=0;orthogonalLoop=1;jettySize=auto;html=1;exitX=0.5;exitY=1;exitDx=0;exitDy=0;" edge="1" parent="1" source="EeQgCP8wtizlQMF-p1mX-117" target="EeQgCP8wtizlQMF-p1mX-53">
          <mxGeometry relative="1" as="geometry">
            <mxPoint x="533.7550000000003" y="543" as="sourcePoint" />
          </mxGeometry>
        </mxCell>
        <mxCell id="EeQgCP8wtizlQMF-p1mX-65" style="edgeStyle=orthogonalEdgeStyle;rounded=0;orthogonalLoop=1;jettySize=auto;html=1;exitX=0.75;exitY=0;exitDx=0;exitDy=0;" edge="1" parent="1" source="EeQgCP8wtizlQMF-p1mX-32" target="EeQgCP8wtizlQMF-p1mX-53">
          <mxGeometry relative="1" as="geometry" />
        </mxCell>
        <mxCell id="EeQgCP8wtizlQMF-p1mX-53" value="&lt;font style=&quot;font-size: 14px;&quot;&gt;Cloud&lt;/font&gt;" style="text;html=1;align=center;verticalAlign=middle;resizable=0;points=[];autosize=1;strokeColor=none;fillColor=none;" vertex="1" parent="1">
          <mxGeometry x="506.25" y="603" width="55" height="29" as="geometry" />
        </mxCell>
        <mxCell id="EeQgCP8wtizlQMF-p1mX-69" value="&lt;font style=&quot;font-size: 14px;&quot;&gt;1st Half Partition&lt;/font&gt;" style="rounded=0;whiteSpace=wrap;html=1;" vertex="1" parent="1">
          <mxGeometry x="475.5" y="121" width="56.5" height="60" as="geometry" />
        </mxCell>
        <mxCell id="EeQgCP8wtizlQMF-p1mX-144" style="edgeStyle=orthogonalEdgeStyle;rounded=0;orthogonalLoop=1;jettySize=auto;html=1;exitX=0.5;exitY=0;exitDx=0;exitDy=0;entryX=0.466;entryY=1.031;entryDx=0;entryDy=0;entryPerimeter=0;fontFamily=Helvetica;fontSize=12;fontColor=default;" edge="1" parent="1" source="EeQgCP8wtizlQMF-p1mX-70">
          <mxGeometry relative="1" as="geometry">
            <mxPoint x="566.04" y="85.05399999999997" as="targetPoint" />
          </mxGeometry>
        </mxCell>
        <mxCell id="EeQgCP8wtizlQMF-p1mX-70" value="&lt;font style=&quot;font-size: 14px;&quot;&gt;2nd Half Partition&lt;/font&gt;" style="rounded=0;whiteSpace=wrap;html=1;" vertex="1" parent="1">
          <mxGeometry x="537.75" y="121" width="56" height="60" as="geometry" />
        </mxCell>
        <mxCell id="EeQgCP8wtizlQMF-p1mX-73" value="&lt;font style=&quot;font-size: 14px;&quot;&gt;1st Half Partition&lt;/font&gt;" style="rounded=0;whiteSpace=wrap;html=1;" vertex="1" parent="1">
          <mxGeometry x="316.13" y="121" width="56.5" height="60" as="geometry" />
        </mxCell>
        <mxCell id="EeQgCP8wtizlQMF-p1mX-74" value="&lt;font style=&quot;font-size: 14px;&quot;&gt;2nd Half Partition&lt;/font&gt;" style="rounded=0;whiteSpace=wrap;html=1;" vertex="1" parent="1">
          <mxGeometry x="378.38" y="121" width="56" height="60" as="geometry" />
        </mxCell>
        <mxCell id="EeQgCP8wtizlQMF-p1mX-75" value="&lt;font style=&quot;font-size: 14px;&quot;&gt;1st Half Partition&lt;/font&gt;" style="rounded=0;whiteSpace=wrap;html=1;" vertex="1" parent="1">
          <mxGeometry x="162.75" y="119" width="56.5" height="60" as="geometry" />
        </mxCell>
        <mxCell id="EeQgCP8wtizlQMF-p1mX-76" value="&lt;font style=&quot;font-size: 14px;&quot;&gt;2nd Half Partition&lt;/font&gt;" style="rounded=0;whiteSpace=wrap;html=1;" vertex="1" parent="1">
          <mxGeometry x="225" y="119" width="56" height="60" as="geometry" />
        </mxCell>
        <mxCell id="EeQgCP8wtizlQMF-p1mX-114" value="&lt;font style=&quot;font-size: 14px;&quot;&gt;Quantized&lt;/font&gt;" style="rounded=0;whiteSpace=wrap;html=1;" vertex="1" parent="1">
          <mxGeometry x="164" y="469" width="117" height="60" as="geometry" />
        </mxCell>
        <mxCell id="EeQgCP8wtizlQMF-p1mX-214" style="edgeStyle=orthogonalEdgeStyle;rounded=0;orthogonalLoop=1;jettySize=auto;html=1;exitX=0.5;exitY=1;exitDx=0;exitDy=0;fontFamily=Helvetica;fontSize=12;fontColor=default;" edge="1" parent="1" source="EeQgCP8wtizlQMF-p1mX-116" target="EeQgCP8wtizlQMF-p1mX-50">
          <mxGeometry relative="1" as="geometry" />
        </mxCell>
        <mxCell id="EeQgCP8wtizlQMF-p1mX-116" value="&lt;font style=&quot;font-size: 14px;&quot;&gt;Quantized&lt;/font&gt;" style="rounded=0;whiteSpace=wrap;html=1;" vertex="1" parent="1">
          <mxGeometry x="316.75" y="469" width="117" height="60" as="geometry" />
        </mxCell>
        <mxCell id="EeQgCP8wtizlQMF-p1mX-117" value="&lt;font style=&quot;font-size: 14px;&quot;&gt;Quantized&lt;/font&gt;" style="rounded=0;whiteSpace=wrap;html=1;" vertex="1" parent="1">
          <mxGeometry x="475" y="471" width="117" height="60" as="geometry" />
        </mxCell>
        <mxCell id="EeQgCP8wtizlQMF-p1mX-183" style="edgeStyle=orthogonalEdgeStyle;rounded=0;orthogonalLoop=1;jettySize=auto;html=1;exitX=0.75;exitY=1;exitDx=0;exitDy=0;fontFamily=Helvetica;fontSize=12;fontColor=default;" edge="1" parent="1" source="EeQgCP8wtizlQMF-p1mX-118" target="EeQgCP8wtizlQMF-p1mX-181">
          <mxGeometry relative="1" as="geometry" />
        </mxCell>
        <mxCell id="EeQgCP8wtizlQMF-p1mX-185" style="edgeStyle=orthogonalEdgeStyle;rounded=0;orthogonalLoop=1;jettySize=auto;html=1;exitX=0.75;exitY=1;exitDx=0;exitDy=0;entryX=0.5;entryY=0;entryDx=0;entryDy=0;fontFamily=Helvetica;fontSize=12;fontColor=default;" edge="1" parent="1" source="EeQgCP8wtizlQMF-p1mX-118" target="EeQgCP8wtizlQMF-p1mX-182">
          <mxGeometry relative="1" as="geometry" />
        </mxCell>
        <mxCell id="EeQgCP8wtizlQMF-p1mX-288" style="edgeStyle=orthogonalEdgeStyle;rounded=0;orthogonalLoop=1;jettySize=auto;html=1;exitX=0;exitY=0.5;exitDx=0;exitDy=0;fontFamily=Helvetica;fontSize=12;fontColor=default;" edge="1" parent="1" source="EeQgCP8wtizlQMF-p1mX-118" target="EeQgCP8wtizlQMF-p1mX-277">
          <mxGeometry relative="1" as="geometry" />
        </mxCell>
        <mxCell id="EeQgCP8wtizlQMF-p1mX-118" value="&lt;font style=&quot;font-size: 14px;&quot;&gt;Quantized&lt;br&gt;EarlyExit&lt;/font&gt;" style="rounded=0;whiteSpace=wrap;html=1;" vertex="1" parent="1">
          <mxGeometry x="162.75" y="927.8" width="75" height="60" as="geometry" />
        </mxCell>
        <mxCell id="EeQgCP8wtizlQMF-p1mX-119" value="" style="endArrow=none;dashed=1;html=1;rounded=0;exitX=1;exitY=0;exitDx=0;exitDy=0;" edge="1" parent="1" source="EeQgCP8wtizlQMF-p1mX-118">
          <mxGeometry width="50" height="50" relative="1" as="geometry">
            <mxPoint x="243.75" y="913.8" as="sourcePoint" />
            <mxPoint x="265.75" y="927.8" as="targetPoint" />
          </mxGeometry>
        </mxCell>
        <mxCell id="EeQgCP8wtizlQMF-p1mX-120" value="" style="endArrow=none;dashed=1;html=1;rounded=0;exitX=1;exitY=1;exitDx=0;exitDy=0;" edge="1" parent="1" source="EeQgCP8wtizlQMF-p1mX-118">
          <mxGeometry width="50" height="50" relative="1" as="geometry">
            <mxPoint x="399.75" y="760.8" as="sourcePoint" />
            <mxPoint x="268.75" y="987.8" as="targetPoint" />
          </mxGeometry>
        </mxCell>
        <mxCell id="EeQgCP8wtizlQMF-p1mX-121" value="" style="endArrow=none;dashed=1;html=1;rounded=0;" edge="1" parent="1">
          <mxGeometry width="50" height="50" relative="1" as="geometry">
            <mxPoint x="268.75" y="927.8" as="sourcePoint" />
            <mxPoint x="268.75" y="985.8" as="targetPoint" />
          </mxGeometry>
        </mxCell>
        <mxCell id="EeQgCP8wtizlQMF-p1mX-187" style="edgeStyle=orthogonalEdgeStyle;rounded=0;orthogonalLoop=1;jettySize=auto;html=1;exitX=0.75;exitY=1;exitDx=0;exitDy=0;entryX=0.5;entryY=0;entryDx=0;entryDy=0;fontFamily=Helvetica;fontSize=12;fontColor=default;" edge="1" parent="1" source="EeQgCP8wtizlQMF-p1mX-122" target="EeQgCP8wtizlQMF-p1mX-179">
          <mxGeometry relative="1" as="geometry" />
        </mxCell>
        <mxCell id="EeQgCP8wtizlQMF-p1mX-188" style="edgeStyle=orthogonalEdgeStyle;rounded=0;orthogonalLoop=1;jettySize=auto;html=1;exitX=0.75;exitY=1;exitDx=0;exitDy=0;entryX=0.5;entryY=0;entryDx=0;entryDy=0;fontFamily=Helvetica;fontSize=12;fontColor=default;" edge="1" parent="1" source="EeQgCP8wtizlQMF-p1mX-122" target="EeQgCP8wtizlQMF-p1mX-180">
          <mxGeometry relative="1" as="geometry" />
        </mxCell>
        <mxCell id="EeQgCP8wtizlQMF-p1mX-122" value="&lt;font style=&quot;font-size: 14px;&quot;&gt;Quantized&lt;br&gt;EarlyExit&lt;/font&gt;" style="rounded=0;whiteSpace=wrap;html=1;" vertex="1" parent="1">
          <mxGeometry x="317.38" y="927.8" width="75" height="60" as="geometry" />
        </mxCell>
        <mxCell id="EeQgCP8wtizlQMF-p1mX-123" value="" style="endArrow=none;dashed=1;html=1;rounded=0;exitX=1;exitY=0;exitDx=0;exitDy=0;" edge="1" parent="1" source="EeQgCP8wtizlQMF-p1mX-122">
          <mxGeometry width="50" height="50" relative="1" as="geometry">
            <mxPoint x="398.38" y="913.8" as="sourcePoint" />
            <mxPoint x="420.38" y="927.8" as="targetPoint" />
          </mxGeometry>
        </mxCell>
        <mxCell id="EeQgCP8wtizlQMF-p1mX-124" value="" style="endArrow=none;dashed=1;html=1;rounded=0;exitX=1;exitY=1;exitDx=0;exitDy=0;" edge="1" parent="1" source="EeQgCP8wtizlQMF-p1mX-122">
          <mxGeometry width="50" height="50" relative="1" as="geometry">
            <mxPoint x="554.38" y="760.8" as="sourcePoint" />
            <mxPoint x="423.38" y="987.8" as="targetPoint" />
          </mxGeometry>
        </mxCell>
        <mxCell id="EeQgCP8wtizlQMF-p1mX-125" value="" style="endArrow=none;dashed=1;html=1;rounded=0;" edge="1" parent="1">
          <mxGeometry width="50" height="50" relative="1" as="geometry">
            <mxPoint x="423.38" y="927.8" as="sourcePoint" />
            <mxPoint x="423.38" y="985.8" as="targetPoint" />
          </mxGeometry>
        </mxCell>
        <mxCell id="EeQgCP8wtizlQMF-p1mX-190" style="edgeStyle=orthogonalEdgeStyle;rounded=0;orthogonalLoop=1;jettySize=auto;html=1;exitX=0.75;exitY=1;exitDx=0;exitDy=0;entryX=0.5;entryY=0;entryDx=0;entryDy=0;fontFamily=Helvetica;fontSize=12;fontColor=default;" edge="1" parent="1" source="EeQgCP8wtizlQMF-p1mX-126" target="EeQgCP8wtizlQMF-p1mX-177">
          <mxGeometry relative="1" as="geometry" />
        </mxCell>
        <mxCell id="EeQgCP8wtizlQMF-p1mX-191" style="edgeStyle=orthogonalEdgeStyle;rounded=0;orthogonalLoop=1;jettySize=auto;html=1;exitX=0.75;exitY=1;exitDx=0;exitDy=0;entryX=0.5;entryY=0;entryDx=0;entryDy=0;fontFamily=Helvetica;fontSize=12;fontColor=default;" edge="1" parent="1" source="EeQgCP8wtizlQMF-p1mX-126" target="EeQgCP8wtizlQMF-p1mX-178">
          <mxGeometry relative="1" as="geometry" />
        </mxCell>
        <mxCell id="EeQgCP8wtizlQMF-p1mX-272" style="edgeStyle=orthogonalEdgeStyle;rounded=0;orthogonalLoop=1;jettySize=auto;html=1;fontFamily=Helvetica;fontSize=12;fontColor=default;" edge="1" parent="1" source="EeQgCP8wtizlQMF-p1mX-126">
          <mxGeometry relative="1" as="geometry">
            <mxPoint x="628.4445037841797" y="1175.1250305175781" as="targetPoint" />
          </mxGeometry>
        </mxCell>
        <mxCell id="EeQgCP8wtizlQMF-p1mX-292" style="edgeStyle=orthogonalEdgeStyle;rounded=0;orthogonalLoop=1;jettySize=auto;html=1;exitX=0;exitY=0.5;exitDx=0;exitDy=0;fontFamily=Helvetica;fontSize=12;fontColor=default;" edge="1" parent="1" source="EeQgCP8wtizlQMF-p1mX-126" target="EeQgCP8wtizlQMF-p1mX-278">
          <mxGeometry relative="1" as="geometry" />
        </mxCell>
        <mxCell id="EeQgCP8wtizlQMF-p1mX-126" value="&lt;font style=&quot;font-size: 14px;&quot;&gt;Quantized&lt;br&gt;EarlyExit&lt;/font&gt;" style="rounded=0;whiteSpace=wrap;html=1;" vertex="1" parent="1">
          <mxGeometry x="473.75" y="927" width="75" height="60" as="geometry" />
        </mxCell>
        <mxCell id="EeQgCP8wtizlQMF-p1mX-127" value="" style="endArrow=none;dashed=1;html=1;rounded=0;exitX=1;exitY=0;exitDx=0;exitDy=0;" edge="1" parent="1" source="EeQgCP8wtizlQMF-p1mX-126">
          <mxGeometry width="50" height="50" relative="1" as="geometry">
            <mxPoint x="554.75" y="913" as="sourcePoint" />
            <mxPoint x="576.75" y="927" as="targetPoint" />
          </mxGeometry>
        </mxCell>
        <mxCell id="EeQgCP8wtizlQMF-p1mX-128" value="" style="endArrow=none;dashed=1;html=1;rounded=0;exitX=1;exitY=1;exitDx=0;exitDy=0;" edge="1" parent="1" source="EeQgCP8wtizlQMF-p1mX-126">
          <mxGeometry width="50" height="50" relative="1" as="geometry">
            <mxPoint x="710.75" y="760" as="sourcePoint" />
            <mxPoint x="579.75" y="987" as="targetPoint" />
          </mxGeometry>
        </mxCell>
        <mxCell id="EeQgCP8wtizlQMF-p1mX-129" value="" style="endArrow=none;dashed=1;html=1;rounded=0;" edge="1" parent="1">
          <mxGeometry width="50" height="50" relative="1" as="geometry">
            <mxPoint x="579.75" y="927" as="sourcePoint" />
            <mxPoint x="579.75" y="985" as="targetPoint" />
          </mxGeometry>
        </mxCell>
        <mxCell id="EeQgCP8wtizlQMF-p1mX-130" style="edgeStyle=orthogonalEdgeStyle;rounded=0;orthogonalLoop=1;jettySize=auto;html=1;" edge="1" parent="1" target="EeQgCP8wtizlQMF-p1mX-132">
          <mxGeometry relative="1" as="geometry">
            <mxPoint x="219.88" y="758" as="sourcePoint" />
          </mxGeometry>
        </mxCell>
        <mxCell id="EeQgCP8wtizlQMF-p1mX-131" style="edgeStyle=orthogonalEdgeStyle;rounded=0;orthogonalLoop=1;jettySize=auto;html=1;exitX=0.75;exitY=0;exitDx=0;exitDy=0;" edge="1" parent="1" source="EeQgCP8wtizlQMF-p1mX-118" target="EeQgCP8wtizlQMF-p1mX-132">
          <mxGeometry relative="1" as="geometry">
            <mxPoint x="218.88" y="927" as="sourcePoint" />
          </mxGeometry>
        </mxCell>
        <mxCell id="EeQgCP8wtizlQMF-p1mX-132" value="&lt;font style=&quot;font-size: 14px;&quot;&gt;Mobile&lt;/font&gt;" style="text;html=1;align=center;verticalAlign=middle;resizable=0;points=[];autosize=1;strokeColor=none;fillColor=none;" vertex="1" parent="1">
          <mxGeometry x="189.88" y="834" width="59" height="29" as="geometry" />
        </mxCell>
        <mxCell id="EeQgCP8wtizlQMF-p1mX-133" style="edgeStyle=orthogonalEdgeStyle;rounded=0;orthogonalLoop=1;jettySize=auto;html=1;" edge="1" parent="1" target="EeQgCP8wtizlQMF-p1mX-135">
          <mxGeometry relative="1" as="geometry">
            <Array as="points">
              <mxPoint x="371" y="812" />
              <mxPoint x="371" y="812" />
            </Array>
            <mxPoint x="370.88" y="760" as="sourcePoint" />
          </mxGeometry>
        </mxCell>
        <mxCell id="EeQgCP8wtizlQMF-p1mX-134" style="edgeStyle=orthogonalEdgeStyle;rounded=0;orthogonalLoop=1;jettySize=auto;html=1;exitX=0.75;exitY=0;exitDx=0;exitDy=0;" edge="1" parent="1" source="EeQgCP8wtizlQMF-p1mX-122" target="EeQgCP8wtizlQMF-p1mX-135">
          <mxGeometry relative="1" as="geometry">
            <mxPoint x="371.88" y="927" as="sourcePoint" />
          </mxGeometry>
        </mxCell>
        <mxCell id="EeQgCP8wtizlQMF-p1mX-135" value="&lt;font style=&quot;font-size: 14px;&quot;&gt;Edge&lt;/font&gt;" style="text;html=1;align=center;verticalAlign=middle;resizable=0;points=[];autosize=1;strokeColor=none;fillColor=none;" vertex="1" parent="1">
          <mxGeometry x="347.13" y="834" width="51" height="29" as="geometry" />
        </mxCell>
        <mxCell id="EeQgCP8wtizlQMF-p1mX-136" style="edgeStyle=orthogonalEdgeStyle;rounded=0;orthogonalLoop=1;jettySize=auto;html=1;" edge="1" parent="1" target="EeQgCP8wtizlQMF-p1mX-138">
          <mxGeometry relative="1" as="geometry">
            <mxPoint x="530.88" y="760" as="sourcePoint" />
          </mxGeometry>
        </mxCell>
        <mxCell id="EeQgCP8wtizlQMF-p1mX-137" style="edgeStyle=orthogonalEdgeStyle;rounded=0;orthogonalLoop=1;jettySize=auto;html=1;exitX=0.75;exitY=0;exitDx=0;exitDy=0;" edge="1" parent="1" source="EeQgCP8wtizlQMF-p1mX-126" target="EeQgCP8wtizlQMF-p1mX-138">
          <mxGeometry relative="1" as="geometry">
            <mxPoint x="529.88" y="926" as="sourcePoint" />
          </mxGeometry>
        </mxCell>
        <mxCell id="EeQgCP8wtizlQMF-p1mX-138" value="&lt;font style=&quot;font-size: 14px;&quot;&gt;Cloud&lt;/font&gt;" style="text;html=1;align=center;verticalAlign=middle;resizable=0;points=[];autosize=1;strokeColor=none;fillColor=none;" vertex="1" parent="1">
          <mxGeometry x="503.13" y="832" width="55" height="29" as="geometry" />
        </mxCell>
        <mxCell id="EeQgCP8wtizlQMF-p1mX-141" style="edgeStyle=orthogonalEdgeStyle;rounded=0;orthogonalLoop=1;jettySize=auto;html=1;fontFamily=Helvetica;fontSize=12;fontColor=default;exitX=0.5;exitY=0;exitDx=0;exitDy=0;" edge="1" parent="1" source="EeQgCP8wtizlQMF-p1mX-69">
          <mxGeometry relative="1" as="geometry">
            <mxPoint x="503.8399999999999" y="84" as="targetPoint" />
          </mxGeometry>
        </mxCell>
        <mxCell id="EeQgCP8wtizlQMF-p1mX-145" style="edgeStyle=orthogonalEdgeStyle;rounded=0;orthogonalLoop=1;jettySize=auto;html=1;exitX=0.5;exitY=0;exitDx=0;exitDy=0;entryX=0.475;entryY=1.041;entryDx=0;entryDy=0;entryPerimeter=0;fontFamily=Helvetica;fontSize=12;fontColor=default;" edge="1" parent="1">
          <mxGeometry relative="1" as="geometry">
            <mxPoint x="408.25" y="121" as="sourcePoint" />
            <mxPoint x="408.875" y="85.39399999999995" as="targetPoint" />
          </mxGeometry>
        </mxCell>
        <mxCell id="EeQgCP8wtizlQMF-p1mX-146" style="edgeStyle=orthogonalEdgeStyle;rounded=0;orthogonalLoop=1;jettySize=auto;html=1;fontFamily=Helvetica;fontSize=12;fontColor=default;exitX=0.5;exitY=0;exitDx=0;exitDy=0;" edge="1" parent="1">
          <mxGeometry relative="1" as="geometry">
            <mxPoint x="346.25" y="121" as="sourcePoint" />
            <mxPoint x="346.48" y="84" as="targetPoint" />
          </mxGeometry>
        </mxCell>
        <mxCell id="EeQgCP8wtizlQMF-p1mX-149" style="edgeStyle=orthogonalEdgeStyle;rounded=0;orthogonalLoop=1;jettySize=auto;html=1;exitX=0.5;exitY=0;exitDx=0;exitDy=0;entryX=0.466;entryY=1.031;entryDx=0;entryDy=0;entryPerimeter=0;fontFamily=Helvetica;fontSize=12;fontColor=default;" edge="1" parent="1">
          <mxGeometry relative="1" as="geometry">
            <mxPoint x="255.5" y="119" as="sourcePoint" />
            <mxPoint x="256.71000000000004" y="83.05399999999997" as="targetPoint" />
          </mxGeometry>
        </mxCell>
        <mxCell id="EeQgCP8wtizlQMF-p1mX-150" style="edgeStyle=orthogonalEdgeStyle;rounded=0;orthogonalLoop=1;jettySize=auto;html=1;fontFamily=Helvetica;fontSize=12;fontColor=default;exitX=0.5;exitY=0;exitDx=0;exitDy=0;" edge="1" parent="1">
          <mxGeometry relative="1" as="geometry">
            <mxPoint x="193.5" y="119" as="sourcePoint" />
            <mxPoint x="193.27999999999997" y="82" as="targetPoint" />
          </mxGeometry>
        </mxCell>
        <mxCell id="EeQgCP8wtizlQMF-p1mX-202" style="edgeStyle=orthogonalEdgeStyle;rounded=0;orthogonalLoop=1;jettySize=auto;html=1;exitX=0.5;exitY=1;exitDx=0;exitDy=0;entryX=0.191;entryY=-0.042;entryDx=0;entryDy=0;entryPerimeter=0;fontFamily=Helvetica;fontSize=12;fontColor=default;" edge="1" parent="1" source="EeQgCP8wtizlQMF-p1mX-177" target="EeQgCP8wtizlQMF-p1mX-275">
          <mxGeometry relative="1" as="geometry">
            <mxPoint x="504.92999999999984" y="1173.161" as="targetPoint" />
          </mxGeometry>
        </mxCell>
        <mxCell id="EeQgCP8wtizlQMF-p1mX-177" value="&lt;font style=&quot;font-size: 14px;&quot;&gt;1st Half Partition&lt;/font&gt;" style="rounded=0;whiteSpace=wrap;html=1;" vertex="1" parent="1">
          <mxGeometry x="476.75" y="1064" width="56.5" height="60" as="geometry" />
        </mxCell>
        <mxCell id="EeQgCP8wtizlQMF-p1mX-203" style="edgeStyle=orthogonalEdgeStyle;rounded=0;orthogonalLoop=1;jettySize=auto;html=1;exitX=0.5;exitY=1;exitDx=0;exitDy=0;entryX=0.813;entryY=-0.042;entryDx=0;entryDy=0;entryPerimeter=0;fontFamily=Helvetica;fontSize=12;fontColor=default;" edge="1" parent="1" source="EeQgCP8wtizlQMF-p1mX-178" target="EeQgCP8wtizlQMF-p1mX-275">
          <mxGeometry relative="1" as="geometry">
            <mxPoint x="567.04" y="1173.161" as="targetPoint" />
          </mxGeometry>
        </mxCell>
        <mxCell id="EeQgCP8wtizlQMF-p1mX-178" value="&lt;font style=&quot;font-size: 14px;&quot;&gt;2nd Half Partition&lt;/font&gt;" style="rounded=0;whiteSpace=wrap;html=1;" vertex="1" parent="1">
          <mxGeometry x="539" y="1064" width="56" height="60" as="geometry" />
        </mxCell>
        <mxCell id="EeQgCP8wtizlQMF-p1mX-200" style="edgeStyle=orthogonalEdgeStyle;rounded=0;orthogonalLoop=1;jettySize=auto;html=1;exitX=0.5;exitY=1;exitDx=0;exitDy=0;fontFamily=Helvetica;fontSize=12;fontColor=default;entryX=0.201;entryY=-0.003;entryDx=0;entryDy=0;entryPerimeter=0;" edge="1" parent="1" source="EeQgCP8wtizlQMF-p1mX-179" target="EeQgCP8wtizlQMF-p1mX-274">
          <mxGeometry relative="1" as="geometry">
            <mxPoint x="346.337" y="1170.145" as="targetPoint" />
            <Array as="points" />
          </mxGeometry>
        </mxCell>
        <mxCell id="EeQgCP8wtizlQMF-p1mX-179" value="&lt;font style=&quot;font-size: 14px;&quot;&gt;1st Half Partition&lt;/font&gt;" style="rounded=0;whiteSpace=wrap;html=1;" vertex="1" parent="1">
          <mxGeometry x="317.38" y="1064" width="56.5" height="60" as="geometry" />
        </mxCell>
        <mxCell id="EeQgCP8wtizlQMF-p1mX-291" style="edgeStyle=orthogonalEdgeStyle;rounded=0;orthogonalLoop=1;jettySize=auto;html=1;entryX=0.877;entryY=-0.042;entryDx=0;entryDy=0;entryPerimeter=0;fontFamily=Helvetica;fontSize=12;fontColor=default;" edge="1" parent="1" source="EeQgCP8wtizlQMF-p1mX-180" target="EeQgCP8wtizlQMF-p1mX-274">
          <mxGeometry relative="1" as="geometry" />
        </mxCell>
        <mxCell id="EeQgCP8wtizlQMF-p1mX-180" value="&lt;font style=&quot;font-size: 14px;&quot;&gt;2nd Half Partition&lt;/font&gt;" style="rounded=0;whiteSpace=wrap;html=1;" vertex="1" parent="1">
          <mxGeometry x="379.63" y="1064" width="56" height="60" as="geometry" />
        </mxCell>
        <mxCell id="EeQgCP8wtizlQMF-p1mX-290" style="edgeStyle=orthogonalEdgeStyle;rounded=0;orthogonalLoop=1;jettySize=auto;html=1;exitX=0.5;exitY=1;exitDx=0;exitDy=0;entryX=0.183;entryY=-0.042;entryDx=0;entryDy=0;entryPerimeter=0;fontFamily=Helvetica;fontSize=12;fontColor=default;" edge="1" parent="1" source="EeQgCP8wtizlQMF-p1mX-181" target="EeQgCP8wtizlQMF-p1mX-273">
          <mxGeometry relative="1" as="geometry" />
        </mxCell>
        <mxCell id="EeQgCP8wtizlQMF-p1mX-181" value="&lt;font style=&quot;font-size: 14px;&quot;&gt;1st Half Partition&lt;/font&gt;" style="rounded=0;whiteSpace=wrap;html=1;" vertex="1" parent="1">
          <mxGeometry x="164" y="1062" width="56.5" height="60" as="geometry" />
        </mxCell>
        <mxCell id="EeQgCP8wtizlQMF-p1mX-289" style="edgeStyle=orthogonalEdgeStyle;rounded=0;orthogonalLoop=1;jettySize=auto;html=1;exitX=0.5;exitY=1;exitDx=0;exitDy=0;entryX=0.836;entryY=0.035;entryDx=0;entryDy=0;entryPerimeter=0;fontFamily=Helvetica;fontSize=12;fontColor=default;" edge="1" parent="1" source="EeQgCP8wtizlQMF-p1mX-182" target="EeQgCP8wtizlQMF-p1mX-273">
          <mxGeometry relative="1" as="geometry" />
        </mxCell>
        <mxCell id="EeQgCP8wtizlQMF-p1mX-182" value="&lt;font style=&quot;font-size: 14px;&quot;&gt;2nd Half Partition&lt;/font&gt;" style="rounded=0;whiteSpace=wrap;html=1;" vertex="1" parent="1">
          <mxGeometry x="227" y="1062" width="56" height="60" as="geometry" />
        </mxCell>
        <mxCell id="EeQgCP8wtizlQMF-p1mX-207" value="&lt;font style=&quot;font-size: 14px;&quot;&gt;Mobile-Edge&lt;/font&gt;" style="text;html=1;align=center;verticalAlign=middle;resizable=0;points=[];autosize=1;strokeColor=none;fillColor=none;fontSize=12;fontFamily=Helvetica;fontColor=default;" vertex="1" parent="1">
          <mxGeometry x="179" y="54" width="97" height="29" as="geometry" />
        </mxCell>
        <mxCell id="EeQgCP8wtizlQMF-p1mX-208" value="&lt;font style=&quot;font-size: 14px;&quot;&gt;Edge-Cloud&lt;/font&gt;" style="text;html=1;align=center;verticalAlign=middle;resizable=0;points=[];autosize=1;strokeColor=none;fillColor=none;fontSize=12;fontFamily=Helvetica;fontColor=default;" vertex="1" parent="1">
          <mxGeometry x="333" y="54" width="92" height="29" as="geometry" />
        </mxCell>
        <mxCell id="EeQgCP8wtizlQMF-p1mX-209" value="&lt;font style=&quot;font-size: 14px;&quot;&gt;Mobile-Cloud&lt;/font&gt;" style="text;html=1;align=center;verticalAlign=middle;resizable=0;points=[];autosize=1;strokeColor=none;fillColor=none;fontSize=12;fontFamily=Helvetica;fontColor=default;" vertex="1" parent="1">
          <mxGeometry x="490" y="54" width="100" height="29" as="geometry" />
        </mxCell>
        <mxCell id="EeQgCP8wtizlQMF-p1mX-223" value="" style="shape=partialRectangle;whiteSpace=wrap;html=1;bottom=0;right=0;fillColor=none;rounded=1;strokeColor=default;fontFamily=Helvetica;fontSize=12;fontColor=default;" vertex="1" parent="1">
          <mxGeometry x="151" y="230" width="503" height="174" as="geometry" />
        </mxCell>
        <mxCell id="EeQgCP8wtizlQMF-p1mX-225" style="edgeStyle=orthogonalEdgeStyle;rounded=0;orthogonalLoop=1;jettySize=auto;html=1;exitX=1;exitY=0.5;exitDx=0;exitDy=0;fontFamily=Helvetica;fontSize=12;fontColor=default;entryX=-0.031;entryY=0.511;entryDx=0;entryDy=0;entryPerimeter=0;" edge="1" parent="1" source="EeQgCP8wtizlQMF-p1mX-224" target="EeQgCP8wtizlQMF-p1mX-226">
          <mxGeometry relative="1" as="geometry">
            <mxPoint x="658.5573348999023" y="314" as="targetPoint" />
          </mxGeometry>
        </mxCell>
        <mxCell id="EeQgCP8wtizlQMF-p1mX-224" value="" style="shape=partialRectangle;whiteSpace=wrap;html=1;top=0;left=0;fillColor=none;rounded=1;strokeColor=default;fontFamily=Helvetica;fontSize=12;fontColor=default;" vertex="1" parent="1">
          <mxGeometry x="131" y="382" width="503" height="174" as="geometry" />
        </mxCell>
        <mxCell id="EeQgCP8wtizlQMF-p1mX-226" value="&lt;font style=&quot;font-size: 14px;&quot;&gt;RQ2 - KW Test&lt;/font&gt;" style="text;html=1;align=center;verticalAlign=middle;resizable=0;points=[];autosize=1;strokeColor=none;fillColor=none;fontSize=12;fontFamily=Helvetica;fontColor=default;" vertex="1" parent="1">
          <mxGeometry x="703" y="454" width="111" height="29" as="geometry" />
        </mxCell>
        <mxCell id="EeQgCP8wtizlQMF-p1mX-230" value="" style="shape=partialRectangle;whiteSpace=wrap;html=1;bottom=0;right=0;fillColor=none;rounded=1;strokeColor=default;fontFamily=Helvetica;fontSize=12;fontColor=default;shadow=0;" vertex="1" parent="1">
          <mxGeometry x="131" y="382" width="503" height="173" as="geometry" />
        </mxCell>
        <mxCell id="EeQgCP8wtizlQMF-p1mX-232" style="edgeStyle=orthogonalEdgeStyle;rounded=0;orthogonalLoop=1;jettySize=auto;html=1;exitX=1;exitY=0.5;exitDx=0;exitDy=0;fontFamily=Helvetica;fontSize=12;fontColor=default;entryX=-0.03;entryY=0.532;entryDx=0;entryDy=0;entryPerimeter=0;" edge="1" parent="1" source="EeQgCP8wtizlQMF-p1mX-231" target="EeQgCP8wtizlQMF-p1mX-233">
          <mxGeometry relative="1" as="geometry">
            <mxPoint x="665.2240219116211" y="469" as="targetPoint" />
          </mxGeometry>
        </mxCell>
        <mxCell id="EeQgCP8wtizlQMF-p1mX-231" value="" style="shape=partialRectangle;whiteSpace=wrap;html=1;top=0;left=0;fillColor=none;rounded=1;strokeColor=default;fontFamily=Helvetica;fontSize=12;fontColor=default;" vertex="1" parent="1">
          <mxGeometry x="151" y="230" width="503" height="174" as="geometry" />
        </mxCell>
        <mxCell id="EeQgCP8wtizlQMF-p1mX-233" value="&lt;font style=&quot;font-size: 14px;&quot;&gt;RQ1 - KW Test&lt;/font&gt;" style="text;html=1;align=center;verticalAlign=middle;resizable=0;points=[];autosize=1;strokeColor=none;fillColor=none;fontSize=12;fontFamily=Helvetica;fontColor=default;" vertex="1" parent="1">
          <mxGeometry x="698" y="302.5" width="111" height="29" as="geometry" />
        </mxCell>
        <mxCell id="EeQgCP8wtizlQMF-p1mX-235" value="" style="shape=partialRectangle;whiteSpace=wrap;html=1;top=0;left=0;fillColor=none;rounded=1;strokeColor=default;fontFamily=Helvetica;fontSize=12;fontColor=default;" vertex="1" parent="1">
          <mxGeometry x="148.5" y="603" width="476" height="174" as="geometry" />
        </mxCell>
        <mxCell id="EeQgCP8wtizlQMF-p1mX-263" style="edgeStyle=orthogonalEdgeStyle;rounded=0;orthogonalLoop=1;jettySize=auto;html=1;exitX=1;exitY=0.5;exitDx=0;exitDy=0;fontFamily=Helvetica;fontSize=12;fontColor=default;" edge="1" parent="1" source="EeQgCP8wtizlQMF-p1mX-239">
          <mxGeometry relative="1" as="geometry">
            <mxPoint x="684.0000457763672" y="692" as="targetPoint" />
          </mxGeometry>
        </mxCell>
        <mxCell id="EeQgCP8wtizlQMF-p1mX-239" value="" style="shape=partialRectangle;whiteSpace=wrap;html=1;bottom=0;right=0;fillColor=none;rounded=1;strokeColor=default;fontFamily=Helvetica;fontSize=12;fontColor=default;" vertex="1" parent="1">
          <mxGeometry x="148.5" y="605" width="476" height="174" as="geometry" />
        </mxCell>
        <mxCell id="EeQgCP8wtizlQMF-p1mX-243" value="&lt;font style=&quot;font-size: 14px;&quot;&gt;Mobile&lt;/font&gt;" style="text;html=1;align=center;verticalAlign=middle;resizable=0;points=[];autosize=1;strokeColor=none;fillColor=none;fontSize=12;fontFamily=Helvetica;fontColor=default;" vertex="1" parent="1">
          <mxGeometry x="607" y="54" width="59" height="29" as="geometry" />
        </mxCell>
        <mxCell id="EeQgCP8wtizlQMF-p1mX-246" value="&lt;font style=&quot;font-size: 14px;&quot;&gt;Edge&lt;/font&gt;" style="text;html=1;align=center;verticalAlign=middle;resizable=0;points=[];autosize=1;strokeColor=none;fillColor=none;fontSize=12;fontFamily=Helvetica;fontColor=default;" vertex="1" parent="1">
          <mxGeometry x="100" y="54" width="51" height="29" as="geometry" />
        </mxCell>
        <mxCell id="EeQgCP8wtizlQMF-p1mX-250" value="&lt;font style=&quot;font-size: 14px;&quot;&gt;Cloud&lt;/font&gt;" style="text;html=1;align=center;verticalAlign=middle;resizable=0;points=[];autosize=1;strokeColor=none;fillColor=none;fontSize=12;fontFamily=Helvetica;fontColor=default;" vertex="1" parent="1">
          <mxGeometry x="428.75" y="54" width="55" height="29" as="geometry" />
        </mxCell>
        <mxCell id="EeQgCP8wtizlQMF-p1mX-252" value="" style="shape=partialRectangle;whiteSpace=wrap;html=1;top=0;left=0;fillColor=none;rounded=1;strokeColor=default;fontFamily=Helvetica;fontSize=12;fontColor=default;" vertex="1" parent="1">
          <mxGeometry x="95.06" y="38.5" width="582.94" height="60" as="geometry" />
        </mxCell>
        <mxCell id="EeQgCP8wtizlQMF-p1mX-259" style="edgeStyle=orthogonalEdgeStyle;rounded=0;orthogonalLoop=1;jettySize=auto;html=1;exitX=1;exitY=0.5;exitDx=0;exitDy=0;entryX=0.011;entryY=0.472;entryDx=0;entryDy=0;entryPerimeter=0;fontFamily=Helvetica;fontSize=12;fontColor=default;" edge="1" parent="1" source="EeQgCP8wtizlQMF-p1mX-254" target="EeQgCP8wtizlQMF-p1mX-258">
          <mxGeometry relative="1" as="geometry" />
        </mxCell>
        <mxCell id="EeQgCP8wtizlQMF-p1mX-254" value="" style="shape=partialRectangle;whiteSpace=wrap;html=1;bottom=0;right=0;fillColor=none;rounded=1;strokeColor=default;fontFamily=Helvetica;fontSize=12;fontColor=default;" vertex="1" parent="1">
          <mxGeometry x="95" y="38.5" width="583" height="60" as="geometry" />
        </mxCell>
        <mxCell id="EeQgCP8wtizlQMF-p1mX-258" value="&lt;font style=&quot;font-size: 14px;&quot;&gt;RQ4: KW Test&lt;/font&gt;" style="text;html=1;align=center;verticalAlign=middle;resizable=0;points=[];autosize=1;strokeColor=none;fillColor=none;fontSize=12;fontFamily=Helvetica;fontColor=default;" vertex="1" parent="1">
          <mxGeometry x="703" y="54" width="106" height="29" as="geometry" />
        </mxCell>
        <mxCell id="EeQgCP8wtizlQMF-p1mX-264" value="&lt;font style=&quot;font-size: 14px;&quot;&gt;RQ3 - KW Test&lt;/font&gt;" style="text;html=1;align=center;verticalAlign=middle;resizable=0;points=[];autosize=1;strokeColor=none;fillColor=none;fontSize=12;fontFamily=Helvetica;fontColor=default;" vertex="1" parent="1">
          <mxGeometry x="683" y="681" width="111" height="29" as="geometry" />
        </mxCell>
        <mxCell id="EeQgCP8wtizlQMF-p1mX-265" value="" style="shape=partialRectangle;whiteSpace=wrap;html=1;bottom=0;right=0;fillColor=none;rounded=1;strokeColor=default;fontFamily=Helvetica;fontSize=12;fontColor=default;" vertex="1" parent="1">
          <mxGeometry x="117.75" y="832" width="476" height="174" as="geometry" />
        </mxCell>
        <mxCell id="EeQgCP8wtizlQMF-p1mX-308" style="edgeStyle=orthogonalEdgeStyle;rounded=0;orthogonalLoop=1;jettySize=auto;html=1;exitX=1;exitY=0.5;exitDx=0;exitDy=0;entryX=0.013;entryY=0.558;entryDx=0;entryDy=0;entryPerimeter=0;fontFamily=Helvetica;fontSize=12;fontColor=default;" edge="1" parent="1" source="EeQgCP8wtizlQMF-p1mX-269" target="EeQgCP8wtizlQMF-p1mX-271">
          <mxGeometry relative="1" as="geometry" />
        </mxCell>
        <mxCell id="EeQgCP8wtizlQMF-p1mX-269" value="" style="shape=partialRectangle;whiteSpace=wrap;html=1;top=0;left=0;fillColor=none;rounded=1;strokeColor=default;fontFamily=Helvetica;fontSize=12;fontColor=default;" vertex="1" parent="1">
          <mxGeometry x="118.75" y="832" width="475" height="174" as="geometry" />
        </mxCell>
        <mxCell id="EeQgCP8wtizlQMF-p1mX-271" value="&lt;font style=&quot;font-size: 14px;&quot;&gt;RQ4 - KW Test&lt;/font&gt;" style="text;html=1;align=center;verticalAlign=middle;resizable=0;points=[];autosize=1;strokeColor=none;fillColor=none;fontSize=12;fontFamily=Helvetica;fontColor=default;" vertex="1" parent="1">
          <mxGeometry x="675" y="902" width="111" height="29" as="geometry" />
        </mxCell>
        <mxCell id="EeQgCP8wtizlQMF-p1mX-273" value="&lt;font style=&quot;font-size: 14px;&quot;&gt;Mobile-Edge&lt;/font&gt;" style="text;html=1;align=center;verticalAlign=middle;resizable=0;points=[];autosize=1;strokeColor=none;fillColor=none;fontSize=12;fontFamily=Helvetica;fontColor=default;" vertex="1" parent="1">
          <mxGeometry x="174" y="1173" width="97" height="29" as="geometry" />
        </mxCell>
        <mxCell id="EeQgCP8wtizlQMF-p1mX-274" value="&lt;font style=&quot;font-size: 14px;&quot;&gt;Edge-Cloud&lt;/font&gt;" style="text;html=1;align=center;verticalAlign=middle;resizable=0;points=[];autosize=1;strokeColor=none;fillColor=none;fontSize=12;fontFamily=Helvetica;fontColor=default;" vertex="1" parent="1">
          <mxGeometry x="326.63" y="1173" width="92" height="29" as="geometry" />
        </mxCell>
        <mxCell id="EeQgCP8wtizlQMF-p1mX-275" value="&lt;font style=&quot;font-size: 14px;&quot;&gt;Mobile-Cloud&lt;/font&gt;" style="text;html=1;align=center;verticalAlign=middle;resizable=0;points=[];autosize=1;strokeColor=none;fillColor=none;fontSize=12;fontFamily=Helvetica;fontColor=default;" vertex="1" parent="1">
          <mxGeometry x="486" y="1173" width="100" height="29" as="geometry" />
        </mxCell>
        <mxCell id="EeQgCP8wtizlQMF-p1mX-276" value="&lt;font style=&quot;font-size: 14px;&quot;&gt;Mobile&lt;/font&gt;" style="text;html=1;align=center;verticalAlign=middle;resizable=0;points=[];autosize=1;strokeColor=none;fillColor=none;fontSize=12;fontFamily=Helvetica;fontColor=default;" vertex="1" parent="1">
          <mxGeometry x="600" y="1176.5" width="59" height="29" as="geometry" />
        </mxCell>
        <mxCell id="EeQgCP8wtizlQMF-p1mX-277" value="&lt;font style=&quot;font-size: 14px;&quot;&gt;Edge&lt;/font&gt;" style="text;html=1;align=center;verticalAlign=middle;resizable=0;points=[];autosize=1;strokeColor=none;fillColor=none;fontSize=12;fontFamily=Helvetica;fontColor=default;" vertex="1" parent="1">
          <mxGeometry x="107" y="1173" width="51" height="29" as="geometry" />
        </mxCell>
        <mxCell id="EeQgCP8wtizlQMF-p1mX-278" value="&lt;font style=&quot;font-size: 14px;&quot;&gt;Cloud&lt;/font&gt;" style="text;html=1;align=center;verticalAlign=middle;resizable=0;points=[];autosize=1;strokeColor=none;fillColor=none;fontSize=12;fontFamily=Helvetica;fontColor=default;" vertex="1" parent="1">
          <mxGeometry x="421.75" y="1173" width="55" height="29" as="geometry" />
        </mxCell>
        <mxCell id="EeQgCP8wtizlQMF-p1mX-279" value="" style="shape=partialRectangle;whiteSpace=wrap;html=1;top=0;left=0;fillColor=none;rounded=1;strokeColor=default;fontFamily=Helvetica;fontSize=12;fontColor=default;" vertex="1" parent="1">
          <mxGeometry x="95.12" y="1148" width="582.94" height="60" as="geometry" />
        </mxCell>
        <mxCell id="EeQgCP8wtizlQMF-p1mX-280" style="edgeStyle=orthogonalEdgeStyle;rounded=0;orthogonalLoop=1;jettySize=auto;html=1;exitX=1;exitY=0.5;exitDx=0;exitDy=0;entryX=0.011;entryY=0.472;entryDx=0;entryDy=0;entryPerimeter=0;fontFamily=Helvetica;fontSize=12;fontColor=default;" edge="1" parent="1" source="EeQgCP8wtizlQMF-p1mX-281" target="EeQgCP8wtizlQMF-p1mX-282">
          <mxGeometry relative="1" as="geometry" />
        </mxCell>
        <mxCell id="EeQgCP8wtizlQMF-p1mX-281" value="" style="shape=partialRectangle;whiteSpace=wrap;html=1;bottom=0;right=0;fillColor=none;rounded=1;strokeColor=default;fontFamily=Helvetica;fontSize=12;fontColor=default;" vertex="1" parent="1">
          <mxGeometry x="95.06" y="1147" width="583" height="60" as="geometry" />
        </mxCell>
        <mxCell id="EeQgCP8wtizlQMF-p1mX-282" value="&lt;font style=&quot;font-size: 14px;&quot;&gt;RQ5: KW Test&lt;/font&gt;" style="text;html=1;align=center;verticalAlign=middle;resizable=0;points=[];autosize=1;strokeColor=none;fillColor=none;fontSize=12;fontFamily=Helvetica;fontColor=default;" vertex="1" parent="1">
          <mxGeometry x="700.5" y="1163.5" width="106" height="29" as="geometry" />
        </mxCell>
        <mxCell id="EeQgCP8wtizlQMF-p1mX-310" value="" style="shape=partialRectangle;whiteSpace=wrap;html=1;bottom=0;right=0;fillColor=none;rounded=1;strokeColor=default;fontFamily=Helvetica;fontSize=12;fontColor=default;" vertex="1" parent="1">
          <mxGeometry x="112.25" y="235" width="175" height="760" as="geometry" />
        </mxCell>
        <mxCell id="EeQgCP8wtizlQMF-p1mX-322" style="edgeStyle=orthogonalEdgeStyle;rounded=0;orthogonalLoop=1;jettySize=auto;html=1;exitX=0;exitY=0.5;exitDx=0;exitDy=0;entryX=1.044;entryY=0.492;entryDx=0;entryDy=0;entryPerimeter=0;fontFamily=Helvetica;fontSize=12;fontColor=default;" edge="1" parent="1" source="EeQgCP8wtizlQMF-p1mX-311" target="EeQgCP8wtizlQMF-p1mX-313">
          <mxGeometry relative="1" as="geometry" />
        </mxCell>
        <mxCell id="EeQgCP8wtizlQMF-p1mX-311" value="" style="shape=partialRectangle;whiteSpace=wrap;html=1;top=0;left=0;fillColor=none;rounded=1;strokeColor=default;fontFamily=Helvetica;fontSize=12;fontColor=default;" vertex="1" parent="1">
          <mxGeometry x="112.75" y="234" width="174" height="761" as="geometry" />
        </mxCell>
        <mxCell id="EeQgCP8wtizlQMF-p1mX-313" value="&lt;font style=&quot;font-size: 14px;&quot;&gt;KW Test:RQ2, RQ3, RQ5&lt;/font&gt;" style="text;html=1;align=center;verticalAlign=middle;resizable=0;points=[];autosize=1;strokeColor=none;fillColor=none;fontSize=12;fontFamily=Helvetica;fontColor=default;" vertex="1" parent="1">
          <mxGeometry x="-92" y="601" width="176" height="29" as="geometry" />
        </mxCell>
        <mxCell id="EeQgCP8wtizlQMF-p1mX-318" value="" style="shape=partialRectangle;whiteSpace=wrap;html=1;bottom=0;right=0;fillColor=none;rounded=1;strokeColor=default;fontFamily=Helvetica;fontSize=12;fontColor=default;" vertex="1" parent="1">
          <mxGeometry x="296.75" y="239" width="164.5" height="776" as="geometry" />
        </mxCell>
        <mxCell id="EeQgCP8wtizlQMF-p1mX-328" style="edgeStyle=orthogonalEdgeStyle;rounded=0;orthogonalLoop=1;jettySize=auto;html=1;fontFamily=Helvetica;fontSize=12;fontColor=default;" edge="1" parent="1" source="EeQgCP8wtizlQMF-p1mX-319">
          <mxGeometry relative="1" as="geometry">
            <mxPoint x="693" y="801" as="targetPoint" />
            <Array as="points">
              <mxPoint x="564" y="627" />
              <mxPoint x="564" y="802" />
            </Array>
          </mxGeometry>
        </mxCell>
        <mxCell id="EeQgCP8wtizlQMF-p1mX-319" value="" style="shape=partialRectangle;whiteSpace=wrap;html=1;top=0;left=0;fillColor=none;rounded=1;strokeColor=default;fontFamily=Helvetica;fontSize=12;fontColor=default;" vertex="1" parent="1">
          <mxGeometry x="295.88" y="239" width="166.12" height="776" as="geometry" />
        </mxCell>
        <mxCell id="EeQgCP8wtizlQMF-p1mX-320" value="" style="shape=partialRectangle;whiteSpace=wrap;html=1;bottom=0;right=0;fillColor=none;rounded=1;strokeColor=default;fontFamily=Helvetica;fontSize=12;fontColor=default;" vertex="1" parent="1">
          <mxGeometry x="468" y="239" width="175" height="776" as="geometry" />
        </mxCell>
        <mxCell id="EeQgCP8wtizlQMF-p1mX-323" style="edgeStyle=orthogonalEdgeStyle;rounded=0;orthogonalLoop=1;jettySize=auto;html=1;fontFamily=Helvetica;fontSize=12;fontColor=default;entryX=0;entryY=0.571;entryDx=0;entryDy=0;entryPerimeter=0;" edge="1" parent="1" source="EeQgCP8wtizlQMF-p1mX-321" target="EeQgCP8wtizlQMF-p1mX-324">
          <mxGeometry relative="1" as="geometry">
            <mxPoint x="703.4815877278647" y="627" as="targetPoint" />
          </mxGeometry>
        </mxCell>
        <mxCell id="EeQgCP8wtizlQMF-p1mX-321" value="" style="shape=partialRectangle;whiteSpace=wrap;html=1;top=0;left=0;fillColor=none;rounded=1;strokeColor=default;fontFamily=Helvetica;fontSize=12;fontColor=default;" vertex="1" parent="1">
          <mxGeometry x="468.25" y="239" width="174.75" height="776" as="geometry" />
        </mxCell>
        <mxCell id="EeQgCP8wtizlQMF-p1mX-324" value="&lt;font style=&quot;font-size: 14px;&quot;&gt;KW Test: RQ2, RQ3, RQ5&lt;/font&gt;" style="text;html=1;align=center;verticalAlign=middle;resizable=0;points=[];autosize=1;strokeColor=none;fillColor=none;fontSize=12;fontFamily=Helvetica;fontColor=default;" vertex="1" parent="1">
          <mxGeometry x="682" y="611" width="180" height="29" as="geometry" />
        </mxCell>
        <mxCell id="EeQgCP8wtizlQMF-p1mX-329" value="&lt;font style=&quot;font-size: 14px;&quot;&gt;KW Test: RQ2, RQ3, RQ5&lt;/font&gt;" style="text;html=1;align=center;verticalAlign=middle;resizable=0;points=[];autosize=1;strokeColor=none;fillColor=none;fontSize=12;fontFamily=Helvetica;fontColor=default;" vertex="1" parent="1">
          <mxGeometry x="687" y="789" width="180" height="29" as="geometry" />
        </mxCell>
      </root>
    </mxGraphModel>
  </diagram>
</mxfile>
